<svg xmlns="http://www.w3.org/2000/svg" viewBox="0 0 349.95 232"><defs><style>.cls-1{fill:#0054c8;}</style></defs><g id="Capa_2" data-name="Capa 2"><g id="Pantalla_1" data-name="Pantalla 1"><path class="cls-1" d="M65.45,75.23h-30a2.88,2.88,0,0,0-2.72,1.94L21.23,110.44a10.9,10.9,0,0,1-10.31,7.34h0A10.91,10.91,0,0,1,.65,103.18L33.37,12.13A18.31,18.31,0,0,1,50.61,0h0A18.33,18.33,0,0,1,67.85,12.1L91.92,78.79A11,11,0,0,1,81.58,93.51h0A11,11,0,0,1,71.16,86l-3-8.85A2.87,2.87,0,0,0,65.45,75.23Zm-4.28-19L51.8,28.53a1.39,1.39,0,0,0-2.64,0L39.9,56.21a1.4,1.4,0,0,0,1.32,1.84H59.85A1.4,1.4,0,0,0,61.17,56.21Z"/><path class="cls-1" d="M181,106.47v2.11a9.2,9.2,0,0,1-9.2,9.2h-2.5q-12.51,0-19.5-6.12t-7-20V62.24a.45.45,0,0,0-.45-.45h-3.38a9.56,9.56,0,0,1-9.55-9.56h0a9.56,9.56,0,0,1,9.55-9.56h3.38a.45.45,0,0,0,.45-.45V11.65A11.5,11.5,0,0,1,154.25.15h0a11.5,11.5,0,0,1,11.5,11.5V42.22a.46.46,0,0,0,.46.45h5a9.56,9.56,0,0,1,9.56,9.56h0a9.56,9.56,0,0,1-9.56,9.56h-5a.46.46,0,0,0-.46.45v29.7q0,3.36,1.62,4.85c1.07,1,2.87,1.48,5.38,1.48h0A8.2,8.2,0,0,1,181,106.47Z"/><path class="cls-1" d="M136.7,200.7v2.11a9.21,9.21,0,0,1-9.21,9.2H125q-12.51,0-19.5-6.12t-7-20V156.47A.45.45,0,0,0,98,156H94.67a9.56,9.56,0,0,1-9.56-9.56h0a9.56,9.56,0,0,1,9.56-9.56H98a.45.45,0,0,0,.45-.45V105.88A11.5,11.5,0,0,1,110,94.38h0a11.5,11.5,0,0,1,11.51,11.5v30.57a.45.45,0,0,0,.45.45h5a9.56,9.56,0,0,1,9.56,9.56h0A9.56,9.56,0,0,1,127,156h-5a.45.45,0,0,0-.45.45v29.7c0,2.24.53,3.86,1.61,4.84s2.87,1.48,5.38,1.48h0A8.22,8.22,0,0,1,136.7,200.7Z"/><path class="cls-1" d="M264.28,39.4v68.36a10,10,0,0,1-10,10h-3.53a9.44,9.44,0,0,1-9.44-9.44h0a.53.53,0,0,0-.95-.33,25.82,25.82,0,0,1-8.53,6.75,29,29,0,0,1-13.25,3,29.62,29.62,0,0,1-15.2-3.83,25.83,25.83,0,0,1-10.23-11.11,37.79,37.79,0,0,1-3.63-17.09v-15A11.44,11.44,0,0,1,200.93,59.3h0a11.44,11.44,0,0,1,11.43,11.44V82.65q0,7.55,3.9,11.71t10.49,4.18q6.74,0,10.63-4.18t3.9-11.71V39.4a11.5,11.5,0,0,1,11.5-11.5h0A11.5,11.5,0,0,1,264.28,39.4Z"/><path class="cls-1" d="M33.65,136.18a25.89,25.89,0,0,1,5.44-2.42,6.38,6.38,0,0,1,8.18,6.16v10.91a6.4,6.4,0,0,1-6.4,6.41h0q-8.71,0-13.07,3.74t-4.36,13.16V197.8a11.65,11.65,0,0,1-11.65,11.64h0A11.65,11.65,0,0,1,.14,197.8V145a11.66,11.66,0,0,1,11.65-11.65h0A11.66,11.66,0,0,1,23.44,145v.69a.1.1,0,0,0,.18.06A30.6,30.6,0,0,1,33.65,136.18Z"/><path class="cls-1" d="M57.08,125.81a11.12,11.12,0,0,1-3.69-8.48,11.26,11.26,0,0,1,3.69-8.6,13.39,13.39,0,0,1,9.5-3.42A13.24,13.24,0,0,1,76,108.73a11.29,11.29,0,0,1,3.68,8.6A11.14,11.14,0,0,1,76,125.81a13.24,13.24,0,0,1-9.37,3.42A13.39,13.39,0,0,1,57.08,125.81Zm20.48,22V221a11,11,0,0,1-11,11.05h0A11.05,11.05,0,0,1,55.46,221V147.79a11.06,11.06,0,0,1,11.05-11.06h0A11,11,0,0,1,77.56,147.79Z"/><path class="cls-1" d="M258.77,144.11q8,8.14,8,22.63V221a11,11,0,0,1-11,11h0a11,11,0,0,1-11-11v-51.3q0-7-3.69-10.79c-2.45-2.55-5.84-3.82-10.14-3.82s-7.69,1.27-10.15,3.82-3.68,6.14-3.68,10.79v12a11,11,0,0,1-11,11h0a11,11,0,0,1-11-11v-12q0-7-3.68-10.79t-10.15-3.82q-6.47,0-10.14,3.82t-3.69,10.79v12a11,11,0,0,1-11,11.05h0a11.05,11.05,0,0,1-11.05-11.05v-35.9a9.06,9.06,0,0,1,9.06-9.06h4a9.06,9.06,0,0,1,9,9.06h0a23.66,23.66,0,0,1,8.79-7.18A27.58,27.58,0,0,1,188.52,136a29.81,29.81,0,0,1,14.54,3.49,24.88,24.88,0,0,1,9.28,8.71.93.93,0,0,0,1.55,0,29.18,29.18,0,0,1,9.4-8.49A27.57,27.57,0,0,1,237.38,136Q250.82,136,258.77,144.11Z"/><path class="cls-1" d="M293.14,205.41a33.12,33.12,0,0,1-13.31-12.93,41.92,41.92,0,0,1,.06-39.26,33.39,33.39,0,0,1,13.44-13,42.66,42.66,0,0,1,38.26,0,33.33,33.33,0,0,1,13.44,13,38.32,38.32,0,0,1,4.92,19.6,37.89,37.89,0,0,1-5,19.59,33.68,33.68,0,0,1-13.57,13,40.54,40.54,0,0,1-19.2,4.53A39.75,39.75,0,0,1,293.14,205.41ZM323,186.14q4.46-4.65,4.46-13.32t-4.33-13.32a14.69,14.69,0,0,0-21.4-.07q-4.26,4.59-4.26,13.39t4.2,13.32a13.6,13.6,0,0,0,10.53,4.66A14.43,14.43,0,0,0,323,186.14Z"/></g></g></svg>