<svg xmlns="http://www.w3.org/2000/svg" viewBox="0 0 94.95 105.49">
    <defs>
        <style>
            .cls-1 {
                fill: #fff;
            }
        </style>
    </defs>
    <g id="Capa_2" data-name="Capa 2">
        <g id="Pantalla_2" data-name="Pantalla 2">
            <path class="cls-1"
                d="M76.54,72.34V61.5q0-24.34,0-48.69c0-3.55-1.42-4.95-5-4.95h-59c-3.16,0-4.66,1.52-4.66,4.64V92.41c0,3.85,1.31,5.16,5.14,5.16,9.83,0,19.67,0,29.5.06a3.63,3.63,0,0,1,2.23.89c2.31,2.12,4.51,4.37,7,6.79-.63.08-.88.15-1.14.15q-19.05,0-38.09,0c-6.26,0-10.86-3.53-12.16-9.23A14.29,14.29,0,0,1,0,93q0-40.1,0-80.19c0-4.68,1.63-8.46,5.68-11a12.55,12.55,0,0,1,7-1.75h59A12.74,12.74,0,0,1,78.4,1.54a11.71,11.71,0,0,1,6,10.69q0,18,0,35.94c0,5.3,0,10.6,0,15.9a2.46,2.46,0,0,1-.9,1.92c-2.19,2.19-4.26,4.49-6.38,6.75Z" />
            <path class="cls-1"
                d="M64.68,96c2.94-3,5.74-5.85,8.56-8.68Q80.57,80,87.92,72.68c1.85-1.84,4.19-2,5.84-.34s1.59,4-.21,5.85Q80.7,91.06,67.83,103.9c-2.12,2.11-4.21,2.13-6.36,0q-6.36-6.3-12.65-12.66a4,4,0,0,1-.19-5.66,3.84,3.84,0,0,1,5.73.09C57.76,89,61.1,92.44,64.68,96Z" />
            <path class="cls-1"
                d="M51.5,55.34c-4.35,0-8.69,0-13,0-3.23,0-5.11-3-3.68-5.76a4,4,0,0,1,3.93-2.11H64.49a3.94,3.94,0,0,1,3.18,6.42,4,4,0,0,1-3.43,1.45Z" />
            <path class="cls-1"
                d="M51.36,76.44c-4.24,0-8.48,0-12.72,0-2.57,0-4.34-1.63-4.34-3.92s1.74-3.93,4.33-3.93c8.58,0,17.16,0,25.74,0,3.28,0,5.2,3.11,3.69,5.84a3.88,3.88,0,0,1-3.69,2Z" />
            <path class="cls-1"
                d="M51.34,34.25H38.76c-2.64,0-4.48-1.67-4.46-4s1.8-3.9,4.38-3.91q12.87,0,25.74,0a4,4,0,1,1-.07,7.89Z" />
            <path class="cls-1"
                d="M26.34,30.37a5.2,5.2,0,0,1-5.18,5.19,5.25,5.25,0,1,1,.12-10.5A5.19,5.19,0,0,1,26.34,30.37Z" />
            <path class="cls-1" d="M21.09,77.76a5.25,5.25,0,0,1,0-10.5,5.25,5.25,0,1,1,0,10.5Z" />
            <path class="cls-1"
                d="M21.22,56.63a5.21,5.21,0,0,1-5.36-5.3,5.27,5.27,0,0,1,5.21-5.18,5.19,5.19,0,0,1,5.27,5.26A5.1,5.1,0,0,1,21.22,56.63Z" />
        </g>
    </g>
</svg>