<svg xmlns="http://www.w3.org/2000/svg" viewBox="0 0 97.95 97.93">
    <defs>
        <style>
            .cls-1 {
                fill: #fff;
            }
        </style>
    </defs>
    <g id="Capa_2" data-name="Capa 2">
        <g id="Pantalla_2" data-name="Pantalla 2">
            <path class="cls-1"
                d="M93.15,86.14c-7.43-7.49-14.92-14.93-22.38-22.4-.17-.17-.33-.37-.51-.57C71,62.08,71.73,61,72.42,60A39.3,39.3,0,0,0,44.61.17,3.5,3.5,0,0,1,44.06,0H34.15c-1.77.39-3.56.7-5.31,1.17a38.2,38.2,0,0,0-16.79,9.44A39,39,0,0,0,.31,32.82c-.11.67-.19,1.34-.31,2v8.71C2.09,58,9.61,69,23.48,75.05s27.32,4,39.8-4.82C65.87,72.82,68.43,75.4,71,78q9.17,9.18,18.36,18.34a18.34,18.34,0,0,0,2.15,1.62h3A6,6,0,0,0,98,94.56v3.23h0V91.72C96.87,89.27,94.84,87.85,93.15,86.14Zm-54-17.68a29.39,29.39,0,1,1,29.37-29A29.3,29.3,0,0,1,39.16,68.46Z" />
            <path class="cls-1"
                d="M44.07,31.67q0,3.61,0,7.23a5,5,0,1,1-9.9.06c0-4.82,0-9.64,0-14.45a5,5,0,1,1,9.9,0Q44.08,28.1,44.07,31.67Z" />
            <path class="cls-1" d="M39.1,48.89a5,5,0,0,1,0,9.9,5,5,0,1,1,0-9.9Z" />
        </g>
    </g>
</svg>