<svg xmlns="http://www.w3.org/2000/svg" viewBox="0 0 82.03 103.68"><defs><style>.cls-1{fill:#333;}</style></defs><g id="Capa_2" data-name="Capa 2"><g id="Pantalla_7" data-name="Pantalla 7"><path class="cls-1" d="M81.89,37.63A40.16,40.16,0,0,0,77.34,22.1,40.63,40.63,0,0,0,49.06.86a39.27,39.27,0,0,0-20,1A41.31,41.31,0,0,0,0,39.46c-.24,5.1.82,10.31,3.34,16.41A100.48,100.48,0,0,0,12.66,72.8L29,95.54a43.58,43.58,0,0,0,4.05,4.92,12.11,12.11,0,0,0,1.46,1.2,11.28,11.28,0,0,0,2.25,1.25,10.92,10.92,0,0,0,3.79.77h.32a12.15,12.15,0,0,0,6.55-2,13.68,13.68,0,0,0,1.76-1.38,10.73,10.73,0,0,0,1.63-2c.91-1.4,1.94-2.73,3-4.13.7-.92,1.4-1.83,2.08-2.76l.5-.68c.43-.58,1.39-1.87,4-5.4.64-.86,1.7-2.3,3.1-4.22l1.39-1.91c.09-.14,2.35-3.27,4.48-6.45a99.32,99.32,0,0,0,8.68-15.54c1.74-4,3.94-9.94,3.94-16.7A28.9,28.9,0,0,0,81.89,37.63Zm-10.59,10a53.35,53.35,0,0,1-2.78,7.12A109.27,109.27,0,0,1,57.28,73.26c-3.63,5-7.41,10.08-11.05,15L42.65,93a2.09,2.09,0,0,1-1.64.68h0a2,2,0,0,1-1.57-.64c-1.38-1.88-2.78-3.76-4.17-5.64-4.2-5.66-8.54-11.52-12.7-17.35a86.23,86.23,0,0,1-10.75-19.3,28.37,28.37,0,0,1,1.73-24.54A30,30,0,0,1,34.91,10.41a32.76,32.76,0,0,1,6.53-.67A30.37,30.37,0,0,1,60.73,16.8,30.29,30.29,0,0,1,71.49,34.1a37.69,37.69,0,0,1,.65,4.48c.08.7.15,1.4.24,2.1A24,24,0,0,1,71.3,47.59Z"/><path class="cls-1" d="M41.07,21.71h0A18.89,18.89,0,0,0,22.21,40.52a18.66,18.66,0,0,0,5.62,13.34,18.38,18.38,0,0,0,13,5.43H41A18.83,18.83,0,0,0,59.81,40.56,18.82,18.82,0,0,0,41.07,21.71Zm.32,8.45A10.59,10.59,0,0,1,49,33.29a10.74,10.74,0,0,1,3.12,7.61A10.57,10.57,0,0,1,49,48.43a10.73,10.73,0,0,1-7.62,3.12h0a10.7,10.7,0,1,1,.07-21.39Z"/></g></g></svg>